<svg width="15" height="14" viewBox="0 0 15 14" fill="none" xmlns="http://www.w3.org/2000/svg">
<path fill-rule="evenodd" clip-rule="evenodd" d="M6.30008 1.40002C3.59385 1.40002 1.40002 3.59385 1.40002 6.30008C1.40002 9.00631 3.59385 11.2001 6.30008 11.2001C9.00631 11.2001 11.2001 9.00631 11.2001 6.30008C11.2001 3.59385 9.00631 1.40002 6.30008 1.40002ZM0 6.30008C0 2.82064 2.82064 0 6.30008 0C9.77952 0 12.6002 2.82064 12.6002 6.30008C12.6002 9.77952 9.77952 12.6002 6.30008 12.6002C2.82064 12.6002 0 9.77952 0 6.30008Z" fill="#A69389"/>
<path fill-rule="evenodd" clip-rule="evenodd" d="M9.76167 9.75996C10.035 9.48659 10.4783 9.48659 10.7516 9.75996L13.7967 12.805C14.07 13.0784 14.07 13.5216 13.7967 13.795C13.5233 14.0683 13.0801 14.0683 12.8067 13.795L9.76167 10.7499C9.4883 10.4766 9.4883 10.0333 9.76167 9.75996Z" fill="#A69389"/>
</svg>
