<svg width="20" height="23" viewBox="0 0 20 23" fill="none" xmlns="http://www.w3.org/2000/svg">
<path d="M17.3494 7.7641L18.411 6.71523C18.6307 6.49578 18.7542 6.19814 18.7542 5.88779C18.7542 5.57744 18.6307 5.2798 18.411 5.06034C18.1914 4.84089 17.8934 4.71761 17.5827 4.71761C17.272 4.71761 16.9741 4.84089 16.7544 5.06034L15.7044 6.12087C14.0694 4.85739 12.0607 4.17188 9.99355 4.17188C7.9264 4.17188 5.91773 4.85739 4.28271 6.12087L3.22105 5.04869C2.99981 4.82924 2.70037 4.70657 2.38859 4.70766C2.07681 4.70875 1.77823 4.83352 1.55855 5.05452C1.33886 5.27551 1.21605 5.57464 1.21715 5.88608C1.21824 6.19752 1.34314 6.49578 1.56438 6.71523L2.63771 7.77575C1.3579 9.40446 0.663469 11.4157 0.666046 13.4863C0.662236 14.9727 1.01425 16.4384 1.69274 17.7613C2.37123 19.0842 3.35652 20.2258 4.56644 21.0911C5.77636 21.9563 7.17583 22.52 8.64816 22.7352C10.1205 22.9504 11.623 22.8108 13.0303 22.3281C14.4377 21.8454 15.7091 21.0336 16.7385 19.9603C17.768 18.887 18.5256 17.5835 18.9483 16.1583C19.3709 14.7331 19.4463 13.2276 19.1682 11.7674C18.8901 10.3072 18.2664 8.93464 17.3494 7.7641ZM9.99938 20.4787C8.61491 20.4787 7.26153 20.0686 6.11039 19.3003C4.95924 18.5319 4.06204 17.4399 3.53222 16.1622C3.00241 14.8845 2.86379 13.4785 3.13388 12.1221C3.40398 10.7657 4.07066 9.51976 5.04963 8.54184C6.0286 7.56393 7.27588 6.89796 8.63375 6.62816C9.99161 6.35835 11.3991 6.49683 12.6782 7.02607C13.9572 7.55531 15.0505 8.45155 15.8197 9.60146C16.5888 10.7514 16.9994 12.1033 16.9994 13.4863C16.9994 15.3408 16.2619 17.1193 14.9491 18.4307C13.6364 19.742 11.8559 20.4787 9.99938 20.4787ZM7.66605 2.99757H12.3327C12.6421 2.99757 12.9389 2.87478 13.1577 2.65623C13.3765 2.43767 13.4994 2.14124 13.4994 1.83216C13.4994 1.52307 13.3765 1.22665 13.1577 1.00809C12.9389 0.789532 12.6421 0.666748 12.3327 0.666748H7.66605C7.35663 0.666748 7.05988 0.789532 6.84109 1.00809C6.6223 1.22665 6.49938 1.52307 6.49938 1.83216C6.49938 2.14124 6.6223 2.43767 6.84109 2.65623C7.05988 2.87478 7.35663 2.99757 7.66605 2.99757ZM11.166 9.99003C11.166 9.68094 11.0431 9.38452 10.8243 9.16596C10.6055 8.9474 10.3088 8.82462 9.99938 8.82462C9.68996 8.82462 9.39321 8.9474 9.17442 9.16596C8.95563 9.38452 8.83271 9.68094 8.83271 9.99003V12.1927C8.56854 12.4287 8.38234 12.7393 8.29875 13.0833C8.21516 13.4274 8.23811 13.7887 8.36458 14.1194C8.49104 14.4501 8.71505 14.7347 9.00697 14.9355C9.29889 15.1362 9.64496 15.2437 9.99938 15.2437C10.3538 15.2437 10.6999 15.1362 10.9918 14.9355C11.2837 14.7347 11.5077 14.4501 11.6342 14.1194C11.7606 13.7887 11.7836 13.4274 11.7 13.0833C11.6164 12.7393 11.4302 12.4287 11.166 12.1927V9.99003Z" fill="#B3B3B3"/>
</svg>
