<svg width="131" height="45" viewBox="0 0 131 45" fill="none" xmlns="http://www.w3.org/2000/svg">
<path d="M129.484 17.0526C125.776 10.3947 118.959 7.86353 111.688 6.80679C111.008 6.70654 110.324 6.61465 109.628 6.52276C103.928 4.52148 97.9459 3.46922 91.914 3.40684C83.3248 1.77084 74.597 0.999946 65.8581 1.1054C65.3844 1.1054 64.9106 1.12628 64.4369 1.13881C59.5882 1.00515 54.7725 0.86314 50.1834 1.22235C39.3237 2.00319 28.5273 3.51576 17.8658 5.75004C15.3282 6.12596 11.324 7.28294 8.8976 8.0849C0.217778 9.54261 0.0159228 22.4825 0.0159228 22.4825C-0.161216 28.7018 1.10347 35.3095 5.63082 39.0019C8.83168 41.6208 18.4837 42.5731 22.9328 42.761L63.1681 44.4318C63.407 44.4318 63.6459 44.4318 63.8849 44.4318H64.7788H65.0219H65.3185L112.631 43.0826C115.774 43.2121 123.445 42.0384 124.322 41.7335C125.651 41.1764 126.87 40.3828 127.923 39.3903C129.202 37.8043 130.009 35.8818 130.25 33.8477C130.728 32.273 130.901 30.3976 130.979 27.9082C131.091 24.3996 130.773 19.3791 129.48 17.0484" fill="#7EBB00"/>
<path d="M127.569 22.4405C127.351 23.0962 127.351 23.0962 126.919 23.2758C126.919 23.2758 126.729 22.7913 126.301 22.9667C126.713 22.7871 126.968 22.1314 127.38 21.9602L127.569 22.4405Z" fill="white"/>
<path d="M125.458 19.3705C125.347 19.1909 125.182 18.8777 125.009 18.5352C124.836 18.1928 125.079 17.7793 124.947 17.4494C124.815 17.1194 124.371 16.9816 124.3 16.731C124.224 16.5158 124.196 16.2861 124.218 16.0586C124.894 16.3551 126.475 17.4995 126.764 17.9631C126.762 18.1643 126.746 18.3652 126.718 18.5645C127.295 19.003 127.542 19.5793 127.373 20.139C127.344 20.2472 127.337 20.3604 127.352 20.4716C127.366 20.5828 127.403 20.6899 127.46 20.7863C127.283 21.346 126.636 21.133 126.269 21.3836C125.726 20.8364 125.858 20.0053 125.446 19.3914" fill="white"/>
<path d="M122.467 13.4725C122.36 13.5936 122.026 13.5018 121.866 13.6897C121.698 13.533 121.516 13.3931 121.322 13.2721C121.285 13.1851 121.253 13.0959 121.227 13.0048C121.089 12.9865 120.96 12.924 120.859 12.8263C120.759 12.7287 120.691 12.601 120.667 12.4618C120.605 12.2045 120.508 11.9572 120.379 11.7268C120.346 11.4553 120.791 11.8938 120.877 11.7268C121.198 11.8521 121.289 12.228 121.577 12.4159C121.689 12.5381 121.778 12.6795 121.841 12.8335C121.841 12.8586 122.096 12.8711 122.179 12.9588L122.344 13.1426C122.344 13.1426 122.517 13.4182 122.463 13.4809" fill="white"/>
<path d="M3.22499 23.2924L3.49273 23.3467C3.59734 23.5926 3.64118 23.8607 3.62042 24.1277L3.35268 24.0734C3.24902 23.8272 3.20522 23.5593 3.22499 23.2924L3.08906 23.2673C3.12201 23.2673 3.12613 23.2339 3.14672 23.213C2.776 22.833 2.75541 22.7703 2.75953 22.0687C2.94555 21.9503 3.15043 21.8655 3.36504 21.8181L3.45566 21.3336C3.2286 21.2751 2.99071 21.2751 2.76365 21.3336C2.67302 21.0663 2.56593 20.916 2.47531 20.6529C2.56593 20.1642 2.25287 19.6004 2.77188 19.0742C3.0024 19.0619 3.23338 19.0619 3.4639 19.0742C3.4433 19.1911 3.5504 19.3414 3.5298 19.4626C3.37098 19.6219 3.24128 19.8086 3.14672 20.0139C2.89958 20.5944 3.55864 20.728 3.76871 21.1457C3.83462 21.5341 3.92112 21.8056 3.98703 22.194C3.9563 22.3895 3.87321 22.5728 3.74683 22.7237C3.62044 22.8747 3.45561 22.9876 3.2703 23.0501C3.24017 23.111 3.19812 23.165 3.14672 23.2088L3.22499 23.2882" fill="white"/>
<path d="M4.79309 27.507C4.57066 27.2147 4.21641 26.8889 3.98986 26.5924C3.76331 26.2959 3.81686 26.0536 3.61914 25.636C3.84385 25.7112 4.08644 25.7112 4.31115 25.636C4.37706 26.0327 4.5789 26.4462 4.64068 26.8346L5.30798 26.9724C5.28327 27.0936 5.3986 27.2439 5.46451 27.6323L4.79309 27.4945" fill="white"/>
<path d="M7.33193 35.906C7.08478 36.048 6.85823 36.0982 6.48339 36.3237C6.29534 35.9569 6.07181 35.6099 5.81609 35.2879C5.80581 35.1224 5.80581 34.9564 5.81609 34.7909C5.59613 34.6825 5.41602 34.5058 5.30193 34.2865C5.18785 34.0672 5.14574 33.8167 5.18174 33.5714C5.21036 33.3902 5.16906 33.2047 5.06641 33.0535C5.16115 32.5774 5.68427 32.6902 5.95202 32.4563C6.41748 32.8531 6.38865 33.5422 6.73053 34.0099C7.08225 34.5306 7.37257 35.0913 7.59555 35.6805C7.47198 35.7473 7.45138 35.8434 7.33193 35.9186" fill="white"/>
<path d="M8.29318 36.0781C8.76276 36.2076 9.26941 36.2786 9.55775 36.6169C9.81704 36.5827 10.0805 36.6263 10.3157 36.7422C10.6328 36.9969 11.1889 37.6861 11.572 37.874C11.9551 38.0619 12.4741 38.2666 12.9437 38.4462C13.0508 38.4462 13.162 38.5339 13.3762 38.5213C13.3762 38.7135 13.4009 38.9056 13.5121 38.9975C13.3473 39.1102 12.956 39.0476 12.4576 38.8722C12.334 38.8262 12.0169 38.4545 11.8809 38.4169C11.8809 38.4169 11.778 38.5965 11.6297 38.5213C10.3321 37.9032 8.78748 36.8508 8.28906 36.0781" fill="white"/>
<path d="M28.1694 41.1274C27.9128 41.0273 27.6736 40.8863 27.4609 40.7097C27.1671 40.8643 26.8577 40.9862 26.5381 41.0731C25.987 41.0295 25.4425 40.9231 24.915 40.7557C24.7379 40.6179 24.3836 40.4717 24.2023 40.338C23.8274 40.5928 23.4732 40.4466 22.9294 40.4299C22.7391 40.547 22.5239 40.6165 22.3018 40.6324C22.0797 40.6484 21.8571 40.6105 21.6523 40.5218C21.8132 40.2749 21.9511 40.0134 22.0643 39.7407L22.95 40.4341C23.329 40.0498 23.8645 40.196 24.2229 40.3422C24.4124 40.2127 24.5937 40.2211 24.7791 40.0999C25.1375 40.2419 25.4876 40.5176 25.8501 40.6638C26.398 40.5469 26.9542 40.3004 27.4979 40.1918C27.9064 40.338 28.3289 40.4402 28.7585 40.4967C28.9192 41.0314 28.3754 40.8852 28.1859 41.14" fill="white"/>
<path d="M113.301 40.4092C114.153 40.1044 114.948 39.6449 115.772 39.6241C116.465 39.7306 117.17 39.7222 117.861 39.599C118.021 39.5614 118.301 39.2607 118.462 39.2189C118.549 39.1521 118.689 39.1605 118.874 39.031C118.989 39.1814 119.109 39.3359 119.253 39.3442C119.08 39.7911 117.218 40.0459 115.575 40.2338C114.644 40.3382 113.828 40.6264 113.313 40.4092" fill="white"/>
<path d="M127.539 30.8065C127.358 30.8163 127.176 30.8163 126.995 30.8065C126.995 30.7146 126.925 30.5977 126.942 30.5016C127.063 30.3804 127.163 30.2392 127.238 30.084C127.428 29.6287 126.9 29.5243 126.74 29.2027C126.686 28.8979 126.612 28.6849 126.559 28.3674C126.578 28.2118 126.641 28.0651 126.74 27.9439C126.838 27.8228 126.968 27.7322 127.115 27.6825C127.138 27.635 127.17 27.5925 127.209 27.5572L127.148 27.4946L126.938 27.4528C126.851 27.2605 126.813 27.0497 126.826 26.8389L127.036 26.8806C127.122 27.0731 127.159 27.2841 127.144 27.4946H127.251C127.226 27.4946 127.222 27.5238 127.205 27.5363C127.502 27.8329 127.514 27.883 127.522 28.4301C127.399 28.5053 127.683 29.3489 127.757 29.5577C127.691 29.942 127.939 30.393 127.539 30.8107" fill="white"/>
<path d="M84.8574 29.1193C84.821 29.1915 84.796 29.269 84.7832 29.3491C84.6679 29.9547 84.915 30.5144 85.5659 31.1159C86.0227 31.5648 86.5452 31.9396 87.1149 32.2269C87.9634 32.6335 88.8837 32.8636 89.8214 32.9035C91.1274 32.9565 92.4242 32.6613 93.5825 32.0473C94.2165 31.6697 94.7464 31.1361 95.123 30.4958C95.4996 29.8555 95.7108 29.1292 95.737 28.3842C95.7905 27.6219 95.6541 26.8581 95.3402 26.1633C95.0263 25.4684 94.5451 24.8648 93.9409 24.4078C93.2245 23.9362 92.4708 23.5255 91.6875 23.1799C90.9733 22.8616 90.2846 22.4873 89.6278 22.0605C89.1952 21.6804 89.0716 21.2251 89.3023 20.8366C89.6607 20.2561 90.5917 20.49 91.0325 20.6946C91.3209 20.8283 91.6216 20.9745 91.9306 21.1123C92.2395 21.2502 92.6391 21.4548 92.9934 21.6177C93.1573 21.7028 93.3387 21.7471 93.5228 21.7471C93.7068 21.7471 93.8883 21.7028 94.0521 21.6177C94.3127 21.4414 94.5286 21.2053 94.6824 20.9285C94.9304 20.5661 95.0861 20.1471 95.1356 19.7089C95.185 19.0448 94.8554 18.7023 94.3446 18.389C92.186 16.7183 88.9151 16.5512 87.1973 17.9713C86.6435 18.4097 86.2039 18.9788 85.9167 19.6289C85.6295 20.279 85.5034 20.9904 85.5495 21.7013C85.6007 22.3735 85.8157 23.0222 86.1752 23.5894C86.5347 24.1566 87.0274 24.6244 87.6092 24.9508C88.3745 25.4115 89.1638 25.8298 89.9738 26.2039C90.4146 26.371 91.4857 26.8555 91.8152 27.6533C91.8828 27.8078 91.9177 27.975 91.9177 28.144C91.9177 28.3131 91.8828 28.4803 91.8152 28.6348C91.7946 29.1862 90.9543 29.4242 90.5258 29.4242C89.7204 29.3522 88.9449 29.0796 88.2683 28.6306C88.1246 28.5444 87.9869 28.4481 87.8564 28.3424C87.6305 28.1208 87.3429 27.975 87.0325 27.9247H86.9377C86.697 27.9371 86.4614 27.9996 86.2457 28.1085C85.8721 28.2801 85.5161 28.4886 85.1828 28.7309C85.0453 28.8162 84.9284 28.9319 84.8409 29.0692" fill="white"/>
<path d="M83.0673 23.1298C83.3681 20.9578 82.5648 19.1534 80.7233 18.0758C79.2815 17.2404 78.0786 17.2404 76.8139 17.2404C75.5327 17.2306 74.2787 17.6151 73.2176 18.3431C70.8859 19.947 69.7077 22.9376 70.062 26.3835C70.6305 31.3498 73.164 32.2979 74.8736 32.8576C76.2436 33.2782 77.6988 33.3243 79.092 32.9913C79.8459 32.8367 81.6997 32.3397 82.7048 31.0574C82.8154 30.9355 82.9011 30.7926 82.9569 30.6369C83.0126 30.4812 83.0374 30.3158 83.0298 30.1503C83.0221 29.9848 82.9821 29.8226 82.9122 29.6728C82.8423 29.5231 82.7438 29.3889 82.6224 29.2781C82.3735 29.0342 82.0969 28.8211 81.7985 28.6432C81.5103 28.401 81.1423 28.2786 80.7686 28.3007C80.5142 28.3816 80.2836 28.5251 80.0972 28.7184C79.9843 28.82 79.8645 28.9135 79.7388 28.9982C79.3598 29.2242 78.9504 29.393 78.5235 29.4994C77.8478 29.6524 77.1515 29.6891 76.4638 29.608C75.8905 29.5195 75.3596 29.2491 74.9474 28.8356C74.5351 28.4221 74.2627 27.8869 74.1692 27.3066C74.1654 27.2903 74.1658 27.2733 74.1702 27.2572C74.1746 27.241 74.1829 27.2263 74.1943 27.2142C74.2058 27.2022 74.2201 27.1932 74.2358 27.1882C74.2516 27.1832 74.2683 27.1822 74.2845 27.1855C76.4102 27.6032 79.7264 27.1855 81.5967 25.7111C82.0135 25.4165 82.3613 25.0325 82.6155 24.5864C82.8696 24.1403 83.0239 23.643 83.0673 23.1298ZM78.1569 23.8356C77.5334 24.0343 76.8824 24.1302 76.2289 24.1197C75.5634 24.109 74.899 24.0588 74.2392 23.9693C74.2145 23.9662 74.1918 23.9537 74.1758 23.9343C74.1597 23.9149 74.1515 23.8901 74.1527 23.8649C74.2475 21.9268 75.5863 20.5694 77.4154 20.5694C78.5647 20.5694 79.2774 21.0873 79.4174 22.0271C79.5575 22.9669 79.1662 23.5015 78.1569 23.8356Z" fill="white"/>
<path d="M52.9649 17.4119C51.9927 17.4226 51.0328 17.6329 50.143 18.0301C49.8135 18.1512 49.4757 18.2765 49.1214 18.3851C49.0988 18.3934 49.074 18.3934 49.0514 18.3851C48.875 18.2832 48.7253 18.1399 48.6147 17.9674C48.5569 17.8706 48.4798 17.7871 48.3882 17.7224C48.2967 17.6577 48.1928 17.6131 48.0833 17.5915C47.4483 17.5079 46.8042 17.529 46.1759 17.6541H46.1183C45.1172 17.7878 44.8453 18.0969 44.8453 19.0868C44.8453 20.9664 44.8453 22.9253 44.8453 24.8174V25.444C44.8453 26.4882 44.8453 27.5324 44.8453 28.5766C44.8453 29.2143 44.8453 29.8519 44.8453 30.4896C44.8453 30.6441 44.8453 30.7903 44.8453 30.9365C44.8073 31.3098 44.8324 31.687 44.9195 32.0517C44.943 32.1598 44.9849 32.263 45.0431 32.3566C45.1256 32.4562 45.23 32.5349 45.3479 32.5864C45.9119 32.8129 46.5177 32.9126 47.1234 32.8787H47.4571C47.874 32.9269 48.2963 32.8798 48.693 32.7409C48.804 32.6951 48.9038 32.6252 48.9854 32.5362C49.2491 32.2313 49.212 31.538 49.1873 31.0284C49.1873 30.878 49.1873 30.7402 49.1873 30.6107V30.0092C49.1873 29.508 49.1873 29.0082 49.1873 28.5098C49.1873 27.2901 49.1873 26.0705 49.1873 24.855V24.4666C49.109 23.3931 49.6652 22.0774 50.176 21.7558C51.0576 21.1878 51.9515 21.0959 52.6971 21.4968C53.1028 21.7435 53.4364 22.0952 53.6638 22.5158C53.8911 22.9364 54.0039 23.4107 53.9907 23.8902C53.9907 24.4749 53.9907 25.1432 53.9907 25.7489C53.9907 26.2083 53.9907 26.6469 53.9907 27.027C53.9907 27.8289 53.9907 28.6476 53.9907 29.437V29.7503C53.9907 29.9717 53.9907 30.2014 53.9701 30.4353C53.9236 30.9713 53.9389 31.5109 54.0154 32.0434C54.0339 32.1695 54.0806 32.2897 54.1521 32.3946C54.2235 32.4996 54.3176 32.5866 54.4273 32.649C54.5899 32.7134 54.7637 32.7433 54.9381 32.7367C55.7167 32.7618 56.4994 32.7618 57.2657 32.7367C57.3753 32.7385 57.4847 32.7258 57.5911 32.6991C57.7135 32.6504 57.8227 32.5726 57.9094 32.4723C57.9961 32.372 58.0579 32.2522 58.0896 32.1227C58.2167 31.5503 58.257 30.9616 58.209 30.3768C58.209 30.1554 58.209 29.9591 58.209 29.7336C58.209 29.1029 58.2338 28.4805 58.2502 27.8373V27.311C58.2502 26.9518 58.275 26.5884 58.2914 26.2167C58.3921 24.9722 58.3617 23.7205 58.2008 22.4826C57.9989 21.3172 57.035 17.5038 53.0555 17.4077" fill="white"/>
<path d="M66.3596 20.6616C66.5861 20.6616 66.821 20.6616 67.0516 20.6616C68.0156 20.6616 68.9301 20.6992 69.3297 20.1813C69.5975 19.8388 69.6222 19.2707 69.4039 18.4479C69.3145 18.1982 69.1424 17.9876 68.9171 17.8521C68.6918 17.7165 68.4271 17.6643 68.168 17.7044C67.6078 17.7044 67.3441 17.7044 67.0146 17.7044H66.4172C66.4046 17.7092 66.3911 17.7113 66.3777 17.7105C66.3642 17.7098 66.3511 17.7063 66.339 17.7002C66.3208 17.6811 66.3105 17.6558 66.3101 17.6292C66.3101 17.4872 66.3101 17.3327 66.3101 17.1823C66.3101 16.159 66.3101 14.9937 66.9157 14.5091C67.1087 14.3832 67.3282 14.3051 67.5565 14.2812C67.7848 14.2572 68.0155 14.2881 68.2298 14.3713C68.6218 14.4846 69.0306 14.5256 69.4369 14.4924C70.0177 14.4298 70.1742 13.8325 70.2608 13.2811L70.2896 13.1308C70.4049 12.5377 70.5326 11.8777 70.2896 11.3306C70.1963 11.1427 70.04 10.9946 69.8488 10.9129L69.6346 10.8085C68.8927 10.5285 68.1069 10.387 67.3153 10.3908C66.5846 10.3824 65.8586 10.5098 65.1732 10.7667C62.2648 11.6814 62.0011 15.4072 62.1 17.5457C62.1012 17.571 62.093 17.5958 62.077 17.6151C62.0609 17.6345 62.0382 17.647 62.0135 17.6501C61.8199 17.6794 61.6304 17.6919 61.4491 17.7086C60.4975 17.7921 59.8713 17.8464 59.9208 19.1788C59.8536 19.6082 59.954 20.0472 60.2009 20.4027C60.4687 20.6867 60.9383 20.6867 61.4862 20.6867C61.6757 20.6867 61.8734 20.6867 62.0753 20.6867C62.1 20.6888 62.1231 20.7003 62.1399 20.7188C62.1567 20.7374 62.166 20.7617 62.1659 20.7869C62.1659 22.6373 62.1659 24.3915 62.1329 26.0915C62.1329 27.6411 62.1 29.245 62.1 30.9534C62.0623 31.1953 62.0759 31.4426 62.1398 31.6789C62.2037 31.9151 62.3166 32.1348 62.4708 32.3234C62.7962 32.6659 63.3564 32.8246 64.168 32.7995C65.066 32.7995 65.6222 32.6533 65.9394 32.3108C66.0818 32.131 66.1852 31.9227 66.2427 31.6996C66.3002 31.4764 66.3105 31.2435 66.2731 31.016C66.2731 29.3453 66.2731 27.6745 66.2731 26.033C66.2731 24.2704 66.2731 22.5078 66.2731 20.7452C66.2731 20.732 66.2756 20.719 66.2806 20.7068C66.2856 20.6946 66.2928 20.6836 66.302 20.6743C66.3112 20.665 66.3221 20.6576 66.3341 20.6525C66.3461 20.6475 66.3589 20.6449 66.3719 20.6449" fill="white"/>
<path d="M99.0816 28.2923C99.0816 29.8502 99.44 31.0364 100.202 31.8175C100.964 32.5986 102.147 33.0037 103.704 33.0079C104.767 33.0599 105.813 32.7169 106.645 32.0431C106.739 31.9716 106.82 31.884 106.884 31.7841C107.123 31.333 106.806 30.6731 106.591 30.2345L106.27 29.5704C106.203 29.4197 106.116 29.2791 106.011 29.1527C105.706 28.8144 105.113 29.0023 104.684 29.1527L104.54 29.1986C104.381 29.24 104.214 29.2403 104.055 29.1994C103.896 29.1585 103.75 29.0778 103.63 28.9647C103.485 28.8121 103.379 28.6267 103.319 28.4241C103.26 28.2214 103.249 28.0072 103.288 27.7994C103.288 26.964 103.288 26.0535 103.288 25.193C103.235 23.7377 103.263 22.2805 103.37 20.8282C103.372 20.8065 103.382 20.7862 103.397 20.7703C103.412 20.7545 103.431 20.744 103.452 20.7405C103.818 20.6912 104.188 20.6744 104.556 20.6904C105.257 20.6904 105.916 20.6904 106.299 20.3187C106.43 20.1599 106.528 19.976 106.588 19.778C106.647 19.5799 106.667 19.3717 106.645 19.1659C106.671 18.9792 106.656 18.7892 106.604 18.6084C106.551 18.4276 106.461 18.2603 106.34 18.1175C105.899 17.6706 105.022 17.6998 104.252 17.7332C103.939 17.7332 103.638 17.7583 103.374 17.7332C103.349 17.7311 103.326 17.7196 103.31 17.701C103.293 17.6825 103.283 17.6582 103.284 17.633C103.284 16.9897 103.284 16.7099 103.284 16.501C103.284 16.1627 103.284 16.0249 103.284 14.8303C103.292 14.6279 103.249 14.4268 103.16 14.2457C103.07 14.0645 102.937 13.9093 102.773 13.7944C102.333 13.5288 101.826 13.4009 101.314 13.4269C100.783 13.4267 100.256 13.5156 99.7531 13.69C99.5356 13.7608 99.35 13.9075 99.2293 14.1041C99.1086 14.3007 99.0606 14.5344 99.094 14.7635V15.1812C99.094 15.6782 99.094 15.6782 99.094 15.7743C99.0959 15.7839 99.0959 15.7939 99.094 15.8035C99.094 15.8411 99.094 16.3674 99.094 16.7851C99.094 17.1359 99.094 17.4701 99.094 17.6204C99.0932 17.6443 99.084 17.667 99.0682 17.6846C99.0523 17.7022 99.0308 17.7135 99.0075 17.7165C98.8097 17.7416 98.6244 17.7583 98.439 17.7708C97.5409 17.8376 96.9477 17.8794 97.0219 19.287C97.096 20.6946 97.6027 20.7614 98.5461 20.7865H98.958C98.9835 20.7876 99.0076 20.7986 99.0253 20.8173C99.043 20.836 99.0528 20.8608 99.0528 20.8867C99.0528 21.7221 99.0528 22.5825 99.0528 23.3928C99.0528 25.0051 99.0528 26.6675 99.1063 28.3173" fill="white"/>
<path d="M120.083 19.2953C119.078 18.1466 117.389 17.4407 115.457 17.353H115.07C113.199 17.353 111.465 17.9587 110.377 19.0238C108.878 20.352 108.099 22.4112 108.066 25.1428C108.066 29.9546 110.678 32.8783 115.07 32.9619C119.445 32.8951 122.073 29.9796 122.073 25.1637C122.048 22.6576 121.381 20.682 120.083 19.3161V19.2953ZM115.07 29.4826C113.067 29.4826 111.98 27.9747 111.922 25.1261C111.988 22.2817 113.084 20.7822 115.082 20.7822C117.08 20.7822 118.159 22.2859 118.217 25.1261C118.151 27.9789 117.063 29.4826 115.07 29.4826Z" fill="white"/>
<path d="M13.7977 33.246C19.2108 33.8057 22.9719 33.1541 24.9822 31.3037C26.1522 30.2261 26.7413 28.7225 26.7289 26.8387C26.7536 24.0694 25.8473 22.1063 24.0306 20.9911C24.0193 20.9843 24.0095 20.9752 24.0017 20.9644C23.9939 20.9537 23.9884 20.9414 23.9853 20.9285C23.98 20.9159 23.9772 20.9024 23.9772 20.8888C23.9772 20.8751 23.98 20.8616 23.9853 20.8491C25.0976 19.216 25.456 17.5076 24.9946 16.0875C24.562 14.7384 23.4415 13.7151 21.7608 13.1219C20.6003 12.7099 19.3774 12.5078 18.1479 12.5247C16.4376 12.555 14.7406 12.8364 13.1098 13.36C12.2529 13.6816 12.2529 13.9824 12.257 15.1101V15.1561C12.257 19.0405 12.257 22.712 12.1705 26.893C12.1458 28.5971 12.1211 30.2094 12.1211 31.6629C12.1211 32.987 12.2776 33.1374 13.7689 33.2627L13.7977 33.246ZM22.6259 26.5797C22.6377 27.3634 22.3546 28.1223 21.8342 28.7019C21.3138 29.2815 20.5952 29.6383 19.8246 29.6998C19.4004 29.7619 18.972 29.7899 18.5434 29.7834C17.7195 29.7834 16.9162 29.7165 16.7267 29.6915C16.5865 29.6768 16.456 29.612 16.3586 29.5087C16.2613 29.4054 16.2034 29.2703 16.1953 29.1276C16.1953 27.9957 16.1953 27.2188 16.1953 26.1453V26.0534C16.1953 25.7945 16.1953 25.5313 16.1953 25.2724C16.1953 24.767 16.1953 24.2449 16.1953 23.7353C16.1828 23.6445 16.2002 23.552 16.2447 23.4722C16.3071 23.3963 16.3953 23.3471 16.4919 23.3343C17.0012 23.2384 17.5188 23.195 18.0367 23.2048H18.3168C18.9083 23.1839 19.5003 23.2231 20.0841 23.3218C21.8802 23.5933 22.6547 25.1972 22.6176 26.5756L22.6259 26.5797ZM16.2035 16.2588C16.3024 16.0332 16.6938 16.0249 17.1181 16.0374H17.2664C17.5383 16.0374 17.8101 16.0374 18.0903 16.0374H18.1315C18.658 16.0114 19.1856 16.0549 19.701 16.1669C20.665 16.4217 21.1222 17.0022 21.1016 17.9211C21.081 18.84 20.529 19.4039 19.4538 19.6838C18.8697 19.8261 18.2709 19.8976 17.6701 19.8968H17.2128C16.9862 19.8968 16.7638 19.8968 16.5413 19.8968H16.496C16.4526 19.9004 16.409 19.8927 16.3693 19.8744C16.3297 19.8562 16.2953 19.8279 16.2694 19.7924C16.2498 19.758 16.2385 19.7193 16.2365 19.6796C16.1917 19.2789 16.1725 18.8757 16.1788 18.4725C16.1788 18.3514 16.1788 18.2344 16.1788 18.1175L16.1541 16.501C16.1479 16.4229 16.1592 16.3444 16.1871 16.2713" fill="white"/>
<path d="M28.5371 25.114C28.5371 29.9299 31.1489 32.8537 35.5403 32.933C39.9152 32.8662 42.5435 29.9508 42.5435 25.1349C42.5435 20.319 39.9234 17.3868 35.5403 17.3284C31.1571 17.391 28.5371 20.3023 28.5371 25.114ZM38.6917 25.114C38.6258 27.9668 37.5382 29.4704 35.5444 29.4704C33.5506 29.4704 32.4548 27.9584 32.3971 25.114C32.463 22.2696 33.5588 20.7701 35.5568 20.7701C37.5547 20.7701 38.634 22.2737 38.6917 25.114Z" fill="white"/>
</svg>
